# xmcd CD database file
#
# Track frame offsets:
#	150
#	48992
#	86160
#	99202
#	129002
#	163567
#	216062
#	240707
#	247857
#
# Disc length: 3827 seconds
#
# Revision: 0
# Processed by: cddbd v1.4PL0 Copyright (c) Steve Scherf et al.
# Submitted via: CDex 1.50Beta7
#
DISCID=650ef109
DTITLE=Eric Shultz - Space and Time Ensemble
DYEAR=2000
DGENRE=Jazz
TTITLE0=I Remember Albert
TTITLE1=Between the Lines
TTITLE2=R. U. Dry
TTITLE3=Who do U think U.  R.
TTITLE4=Champigny
TTITLE5=Plain 2 C.
TTITLE6=Shadows that Speak
TTITLE7=R. U. Drier
TTITLE8=Silhouettes
EXTD=YEAR: 2000
EXTT0=
EXTT1=
EXTT2=
EXTT3=
EXTT4=
EXTT5=
EXTT6=
EXTT7=
EXTT8=
PLAYORDER=
